<svg class="animated" id="freepik_stories-software-tester" xmlns="http://www.w3.org/2000/svg" viewBox="0 0 750 500" version="1.1" xmlns:xlink="http://www.w3.org/1999/xlink" xmlns:svgjs="http://svgjs.com/svgjs"><style>svg#freepik_stories-software-tester:not(.animated) .animable {opacity: 0;}svg#freepik_stories-software-tester.animated #freepik--background-complete--inject-76 {animation: 1.5s Infinite  linear floating;animation-delay: 0s;}svg#freepik_stories-software-tester.animated #freepik--Shadow--inject-76 {animation: 1.5s Infinite  linear floating;animation-delay: 0s;}svg#freepik_stories-software-tester.animated #freepik--Gears_2--inject-76 {animation: 1.5s Infinite  linear floating;animation-delay: 0s;}svg#freepik_stories-software-tester.animated #freepik--Device--inject-76 {animation: 1.5s Infinite  linear floating;animation-delay: 0s;}svg#freepik_stories-software-tester.animated #freepik--Gear_1--inject-76 {animation: 1.5s Infinite  linear floating;animation-delay: 0s;}svg#freepik_stories-software-tester.animated #freepik--Tab--inject-76 {animation: 1.5s Infinite  linear floating;animation-delay: 0s;}svg#freepik_stories-software-tester.animated #freepik--Speech_Bubble--inject-76 {animation: 1.5s Infinite  linear floating;animation-delay: 0s;}svg#freepik_stories-software-tester.animated #freepik--Character--inject-76 {animation: 1.5s Infinite  linear floating;animation-delay: 0s;}            @keyframes floating {                0% {                    opacity: 1;                    transform: translateY(0px);                }                50% {                    transform: translateY(-10px);                }                100% {                    opacity: 1;                    transform: translateY(0px);                }            }        </style><g id="freepik--background-complete--inject-76" class="animable" style="transform-origin: 375px 249.142px;"><g id="els6r88xxpu" class="animable" style="transform-origin: 375px 229.83px;"><g id="elc1lh1mrg7nq" class="animable" style="transform-origin: 375px 212.709px;"><g id="el0tsl9ptvyi8q" class="animable" style="transform-origin: 375px 182.114px;"><g id="eldzn4ff1niim" class="animable" style="transform-origin: 479.147px 182.114px;"><path d="M673.734,319.613h-180.746c-3.232,0-5.862-2.63-5.862-5.862V50.477c0-3.232,2.63-5.862,5.862-5.862h180.746c3.232,0,5.862,2.629,5.862,5.862V313.751c0,3.233-2.63,5.862-5.862,5.862ZM492.988,44.866c-3.095,0-5.612,2.518-5.612,5.612V313.751c0,3.095,2.518,5.612,5.612,5.612h180.746c3.095,0,5.612-2.518,5.612-5.612V50.477c0-3.094-2.518-5.612-5.612-5.612h-180.746Z" style="fill: rgb(224, 224, 224); transform-origin: 583.361px 182.114px;" id="elxgxqzxiql6" class="animable"></path><path d="M465.306,319.613h-180.747c-3.232,0-5.862-2.63-5.862-5.862V50.477c0-3.232,2.629-5.862,5.862-5.862h180.747c3.232,0,5.862,2.629,5.862,5.862V313.751c0,3.233-2.63,5.862-5.862,5.862ZM284.559,44.866c-3.094,0-5.612,2.518-5.612,5.612V313.751c0,3.095,2.518,5.612,5.612,5.612h180.747c3.095,0,5.612-2.518,5.612-5.612V50.477c0-3.094-2.518-5.612-5.612-5.612h-180.747Z" style="fill: rgb(224, 224, 224); transform-origin: 374.933px 182.114px;" id="eligbauvko41j" class="animable"></path></g><path d="M257.012,319.613H76.266c-3.232,0-5.862-2.63-5.862-5.862V50.477c0-3.232,2.629-5.862,5.862-5.862h180.746c3.232,0,5.862,2.629,5.862,5.862V313.751c0,3.233-2.63,5.862-5.862,5.862ZM76.266,44.866c-3.094,0-5.612,2.518-5.612,5.612V313.751c0,3.095,2.518,5.612,5.612,5.612h180.746c3.095,0,5.612-2.518,5.612-5.612V50.477c0-3.094-2.517-5.612-5.612-5.612H76.266Z" style="fill: rgb(224, 224, 224); transform-origin: 166.639px 182.114px;" id="elq9geyvb9rxj" class="animable"></path></g><rect y="380.683" width="750" height=".12" style="fill: rgb(224, 224, 224); transform-origin: 375px 380.743px;" id="els34l6xb4zic" class="animable"></rect></g><g id="elt2vedsngffe" class="animable" style="transform-origin: 375px 406.153px;"><rect x="653.626" y="410.059" width="55.729" height=".421" style="fill: rgb(235, 235, 235); transform-origin: 681.49px 410.27px;" id="elikd42sh54mj" class="animable"></rect><rect x="495.044" y="414.624" width="14.627" height=".421" style="fill: rgb(235, 235, 235); transform-origin: 502.357px 414.835px;" id="elklzbxzwyr8" class="animable"></rect><rect x="40.645" y="397.261" width="72.675" height=".421" style="fill: rgb(235, 235, 235); transform-origin: 76.9825px 397.472px;" id="elo1ncafuny8" class="animable"></rect><rect x="128.299" y="397.261" width="10.655" height=".421" style="fill: rgb(235, 235, 235); transform-origin: 133.626px 397.472px;" id="elmx2wd49lnxa" class="animable"></rect><rect x="173.586" y="404.365" width="157.613" height=".421" style="fill: rgb(235, 235, 235); transform-origin: 252.393px 404.576px;" id="el12shpqdzc62" class="animable"></rect></g></g><g id="elb51z0l5l88k" class="animable" style="transform-origin: 85.3249px 371.445px;"><path d="M82.707,341.945l-11.928,10.966,44.071,47.204s17.907-14.64,5.369-32.839c-12.538-18.199-28.796-25.133-37.512-25.332Z" style="fill: rgb(224, 224, 224); transform-origin: 97.7266px 371.03px;" id="elhshuh12w1f" class="animable"></path><path d="M88.101,315.963c2.477,1.694,4.384,4.561,5.617,7.256,1.277,2.79,1.976,5.798,2.029,8.867,.106,6.125-2.648,12.159-7.149,16.268-2.062,1.883-5.004-1.309-2.938-3.195,3.618-3.304,5.747-8.001,5.753-12.913,.003-2.357-.524-4.738-1.488-6.887-.902-2.012-2.262-4.44-4.125-5.713-2.303-1.575-.008-5.261,2.3-3.683h0Z" style="fill: rgb(224, 224, 224); transform-origin: 90.2972px 332.253px;" id="el3v14uy91ugr" class="animable"></path><path d="M126.122,335.963c-9.32,3.194-16.63,11.115-19.35,20.533-.777,2.691-4.925,1.407-4.15-1.276,3.184-11.024,11.766-19.795,22.576-23.499,1.118-.383,2.342,.612,2.583,1.659,.287,1.25-.557,2.205-1.659,2.583h0Z" style="fill: rgb(224, 224, 224); transform-origin: 115.182px 344.81px;" id="el53ht9r6pq7x" class="animable"></path><path d="M138.758,366.574c-8.386-3.407-17.976-2.875-25.898,1.524-2.441,1.356-4.429-2.505-1.984-3.863,8.813-4.894,19.809-5.61,29.158-1.812,1.085,.441,1.802,1.524,1.437,2.713-.321,1.045-1.622,1.88-2.713,1.437h0Z" style="fill: rgb(224, 224, 224); transform-origin: 125.664px 364.191px;" id="elgx22j5nqt8t" class="animable"></path><path d="M55.717,366.76l11.928-10.967,43.344,47.872s-16.089,16.617-33.173,2.598-22.632-30.801-22.099-39.503Z" style="fill: rgb(224, 224, 224); transform-origin: 83.3357px 383.839px;" id="els5kwhu2nhi" class="animable"></path><path d="M33.237,367.974c1.086,1.916,3.322,3.449,5.198,4.507,2.103,1.186,4.48,1.942,6.888,2.142,4.895,.406,9.754-1.321,13.349-4.65,2.05-1.898,4.991,1.295,2.938,3.196-4.472,4.14-10.716,6.379-16.81,5.76-3.051-.31-5.996-1.255-8.665-2.765-2.581-1.461-5.278-3.593-6.76-6.206-1.377-2.429,2.484-4.415,3.863-1.984h0Z" style="fill: rgb(224, 224, 224); transform-origin: 45.6947px 372.949px;" id="eldhmqg5bsut" class="animable"></path><path d="M41.967,408.245c4.597-10.46,14.056-18.278,25.308-20.527,2.736-.547,3.673,3.693,.924,4.242-9.613,1.921-18.119,8.542-22.083,17.561-.475,1.081-1.498,1.796-2.713,1.437-1.024-.303-1.908-1.642-1.437-2.713h0Z" style="fill: rgb(224, 224, 224); transform-origin: 55.844px 399.361px;" id="elkh3hr53gmhf" class="animable"></path><path d="M71.319,425.603c-3.001-9.634-1.366-20.532,4.249-28.904,1.556-2.319,5.241-.022,3.683,2.3-5.048,7.525-6.382,17.037-3.69,25.679,.349,1.119-.585,2.349-1.659,2.583-1.228,.267-2.233-.536-2.583-1.659h0Z" style="fill: rgb(224, 224, 224); transform-origin: 74.7331px 411.523px;" id="el1noa75fc58u" class="animable"></path><path d="M79.698,340.147c.159,.354-12.392-10.39-23.049-.592-10.657,9.798-2.595,24.178-2.595,24.178l25.644-23.586Z" style="fill: rgb(224, 224, 224); transform-origin: 65.4156px 349.577px;" id="el8pbipwsyd1v" class="animable"></path></g><path d="M576.479,78.665c-1.925,2.932-3.22,6.152-3.91,9.474l-5.291,.498v10.245l5.291,.499c.689,3.321,1.984,6.541,3.909,9.474l-3.379,4.081,7.245,7.245,4.081-3.379c2.932,1.925,6.153,3.22,9.474,3.909l.498,5.291h10.245l.498-5.29c3.322-.69,6.542-1.985,9.474-3.91l4.081,3.379,7.245-7.245-3.379-4.082c1.925-2.932,3.22-6.152,3.909-9.474l5.29-.499v-10.245l-5.29-.499c-.69-3.321-1.985-6.541-3.91-9.473l3.379-4.081-7.245-7.245-4.081,3.379c-2.932-1.925-6.153-3.221-9.473-3.91l-.499-5.29h-10.245l-.498,5.291c-3.321,.69-6.541,1.984-9.473,3.909l-4.081-3.379-7.245,7.245,3.379,4.082Zm32.755,5.18c5.126,5.127,5.127,13.439,0,18.566-5.127,5.127-13.44,5.126-18.566,0-5.127-5.127-5.127-13.439,0-18.566,5.127-5.127,13.439-5.127,18.566,0Z" style="fill: rgb(224, 224, 224); transform-origin: 599.519px 93.7595px;" id="elv98l6agt5ms" class="animable"></path><path d="M642.888,78.8c-1.138,1.733-1.903,3.636-2.311,5.599l-3.127,.294v6.055l3.127,.295c.407,1.963,1.173,3.866,2.31,5.599l-1.997,2.412,4.282,4.282,2.412-1.997c1.733,1.138,3.636,1.903,5.599,2.311l.294,3.127h6.055l.295-3.127c1.963-.408,3.866-1.173,5.599-2.311l2.412,1.997,4.282-4.282-1.997-2.412c1.138-1.733,1.903-3.636,2.31-5.599l3.126-.295v-6.055l-3.126-.295c-.408-1.963-1.173-3.866-2.311-5.599l1.997-2.412-4.282-4.282-2.412,1.997c-1.733-1.138-3.636-1.904-5.599-2.311l-.295-3.127h-6.055l-.294,3.127c-1.963,.408-3.866,1.173-5.599,2.31l-2.412-1.997-4.282,4.282,1.997,2.412Zm19.359,3.061c3.03,3.03,3.03,7.943,0,10.973-3.03,3.03-7.943,3.03-10.973,0s-3.03-7.943,0-10.973c3.03-3.03,7.943-3.03,10.973,0Z" style="fill: rgb(240, 240, 240); transform-origin: 656.504px 87.7205px;" id="elgthwl6phfoa" class="animable"></path><path d="M85.521,132.23c-1.138,1.733-1.903,3.636-2.311,5.599l-3.127,.294v6.055l3.127,.295c.407,1.963,1.173,3.866,2.31,5.599l-1.997,2.412,4.282,4.282,2.412-1.997c1.733,1.138,3.636,1.903,5.599,2.311l.294,3.127h6.055l.295-3.127c1.963-.408,3.866-1.173,5.599-2.311l2.412,1.997,4.282-4.282-1.997-2.412c1.138-1.733,1.903-3.636,2.31-5.599l3.126-.295v-6.055l-3.126-.295c-.408-1.963-1.173-3.866-2.311-5.599l1.997-2.412-4.282-4.282-2.412,1.997c-1.733-1.138-3.636-1.904-5.599-2.311l-.295-3.127h-6.055l-.294,3.127c-1.963,.408-3.866,1.173-5.599,2.311l-2.412-1.997-4.282,4.282,1.997,2.412Zm19.359,3.062c3.03,3.03,3.03,7.943,0,10.973-3.03,3.03-7.943,3.03-10.973,0s-3.03-7.943,0-10.973c3.03-3.03,7.943-3.03,10.973,0Z" style="fill: rgb(240, 240, 240); transform-origin: 99.1375px 141.151px;" id="eleg9en4p24c8" class="animable"></path><path d="M162.378,406.13c-1.933,2.944-3.234,6.178-3.926,9.514l-5.313,.5v10.289l5.314,.501c.692,3.335,1.993,6.569,3.926,9.514l-3.394,4.099,7.276,7.275,4.099-3.393c2.945,1.933,6.179,3.234,9.514,3.926l.5,5.313h10.289l.501-5.313c3.336-.693,6.57-1.993,9.514-3.926l4.099,3.393,7.276-7.276-3.393-4.099c1.933-2.945,3.234-6.179,3.926-9.514l5.312-.501v-10.289l-5.312-.501c-.693-3.335-1.993-6.569-3.927-9.514l3.394-4.099-7.276-7.275-4.099,3.393c-2.945-1.933-6.179-3.234-9.514-3.927l-.501-5.313h-10.289l-.5,5.313c-3.335,.693-6.569,1.993-9.514,3.926l-4.099-3.393-7.276,7.276,3.394,4.099Zm32.895,5.202c5.148,5.148,5.149,13.497,0,18.645-5.149,5.149-13.497,5.149-18.646,0s-5.149-13.496,0-18.646c5.149-5.149,13.496-5.149,18.645,0Z" style="fill: rgb(240, 240, 240); transform-origin: 185.519px 421.288px;" id="elptf0a9thbj" class="animable"></path></g><g id="freepik--Shadow--inject-76" class="animable" style="transform-origin: 372.69px 466.2px;"><ellipse cx="372.69" cy="466.2" rx="285.376" ry="5.907" style="fill: rgb(245, 245, 245); transform-origin: 372.69px 466.2px;" id="elxkwwychrm4j" class="animable"></ellipse></g><g id="freepik--Gears_2--inject-76" class="animable" style="transform-origin: 408.342px 243.366px;"><g id="elkhsstiyk7p" class="animable" style="transform-origin: 497.748px 412.22px;"><path d="M474.597,404.293c-1.013,2.947-1.419,6.003-1.282,9.014l-4.444,1.592,2.252,8.818,4.664-.734c1.323,2.707,3.146,5.194,5.448,7.294l-2.011,4.256,7.828,4.643,2.77-3.805c2.947,1.012,6.004,1.419,9.014,1.282l1.592,4.444,8.818-2.253-.734-4.663c2.707-1.324,5.194-3.147,7.295-5.448l4.256,2.011,4.643-7.828-3.805-2.77c1.012-2.947,1.419-6.003,1.282-9.014l4.443-1.592-2.252-8.818-4.663,.734c-1.324-2.707-3.147-5.194-5.448-7.294l2.011-4.256-7.828-4.643-2.77,3.806c-2.947-1.013-6.004-1.42-9.014-1.283l-1.592-4.444-8.818,2.253,.734,4.663c-2.707,1.324-5.194,3.146-7.294,5.448l-4.256-2.011-4.643,7.829,3.806,2.77Zm29.193-2.261c5.626,3.337,7.482,10.603,4.145,16.229-3.337,5.627-10.604,7.482-16.229,4.146-5.627-3.337-7.482-10.603-4.145-16.229,3.337-5.626,10.602-7.482,16.229-4.145Z" style="fill: rgb(64, 255, 116); transform-origin: 497.748px 412.22px;" id="elwxsofgajz2f" class="animable"></path><g id="eluw32ahsh5vq"><path d="M474.597,404.293c-1.013,2.947-1.419,6.003-1.282,9.014l-4.444,1.592,2.252,8.818,4.664-.734c1.323,2.707,3.146,5.194,5.448,7.294l-2.011,4.256,7.828,4.643,2.77-3.805c2.947,1.012,6.004,1.419,9.014,1.282l1.592,4.444,8.818-2.253-.734-4.663c2.707-1.324,5.194-3.147,7.295-5.448l4.256,2.011,4.643-7.828-3.805-2.77c1.012-2.947,1.419-6.003,1.282-9.014l4.443-1.592-2.252-8.818-4.663,.734c-1.324-2.707-3.147-5.194-5.448-7.294l2.011-4.256-7.828-4.643-2.77,3.806c-2.947-1.013-6.004-1.42-9.014-1.283l-1.592-4.444-8.818,2.253,.734,4.663c-2.707,1.324-5.194,3.146-7.294,5.448l-4.256-2.011-4.643,7.829,3.806,2.77Zm29.193-2.261c5.626,3.337,7.482,10.603,4.145,16.229-3.337,5.627-10.604,7.482-16.229,4.146-5.627-3.337-7.482-10.603-4.145-16.229,3.337-5.626,10.602-7.482,16.229-4.145Z" style="fill: rgb(255, 255, 255); opacity: 0.4; transform-origin: 497.748px 412.22px;" class="animable"></path></g></g><g id="elnpfpetepra" class="animable" style="transform-origin: 547.952px 430.624px;"><path d="M534.095,425.883c-.606,1.764-.849,3.593-.767,5.395l-2.66,.953,1.348,5.278,2.791-.44c.792,1.62,1.883,3.109,3.261,4.366l-1.204,2.547,4.686,2.779,1.658-2.278c1.764,.606,3.593,.849,5.395,.767l.953,2.66,5.278-1.349-.439-2.791c1.62-.793,3.109-1.883,4.366-3.261l2.547,1.203,2.779-4.686-2.278-1.658c.606-1.764,.849-3.593,.767-5.395l2.659-.953-1.348-5.278-2.791,.439c-.792-1.62-1.883-3.109-3.261-4.366l1.204-2.547-4.686-2.779-1.658,2.278c-1.764-.606-3.594-.85-5.395-.768l-.953-2.66-5.278,1.348,.439,2.791c-1.62,.792-3.109,1.883-4.366,3.26l-2.547-1.204-2.779,4.686,2.278,1.658Zm17.473-1.353c3.367,1.997,4.478,6.346,2.481,9.713-1.997,3.368-6.346,4.478-9.714,2.481-3.368-1.997-4.478-6.346-2.481-9.713,1.997-3.367,6.346-4.478,9.713-2.481Z" style="fill: rgb(64, 255, 116); transform-origin: 547.952px 430.624px;" id="el121ybdrxyy5" class="animable"></path><g id="elpyai3kl65r"><path d="M534.095,425.883c-.606,1.764-.849,3.593-.767,5.395l-2.66,.953,1.348,5.278,2.791-.44c.792,1.62,1.883,3.109,3.261,4.366l-1.204,2.547,4.686,2.779,1.658-2.278c1.764,.606,3.593,.849,5.395,.767l.953,2.66,5.278-1.349-.439-2.791c1.62-.793,3.109-1.883,4.366-3.261l2.547,1.203,2.779-4.686-2.278-1.658c.606-1.764,.849-3.593,.767-5.395l2.659-.953-1.348-5.278-2.791,.439c-.792-1.62-1.883-3.109-3.261-4.366l1.204-2.547-4.686-2.779-1.658,2.278c-1.764-.606-3.594-.85-5.395-.768l-.953-2.66-5.278,1.348,.439,2.791c-1.62,.792-3.109,1.883-4.366,3.26l-2.547-1.204-2.779,4.686,2.278,1.658Zm17.473-1.353c3.367,1.997,4.478,6.346,2.481,9.713-1.997,3.368-6.346,4.478-9.714,2.481-3.368-1.997-4.478-6.346-2.481-9.713,1.997-3.367,6.346-4.478,9.713-2.481Z" style="fill: rgb(255, 255, 255); opacity: 0.7; transform-origin: 547.952px 430.624px;" class="animable"></path></g></g><g id="elzposdo947tg" class="animable" style="transform-origin: 342.738px 95.107px;"><path d="M314.352,76.512c-2.371,3.612-3.966,7.579-4.816,11.671l-6.517,.613v12.621l6.518,.614c.849,4.091,2.444,8.058,4.816,11.67l-4.162,5.028,8.924,8.924,5.028-4.162c3.612,2.371,7.579,3.966,11.67,4.816l.614,6.518h12.621l.614-6.517c4.092-.85,8.058-2.445,11.671-4.816l5.028,4.162,8.925-8.924-4.162-5.028c2.371-3.612,3.966-7.579,4.816-11.67l6.516-.614v-12.621l-6.516-.614c-.85-4.091-2.445-8.058-4.817-11.67l4.162-5.028-8.924-8.924-5.028,4.162c-3.612-2.372-7.58-3.967-11.67-4.817l-.614-6.517h-12.621l-.614,6.518c-4.091,.85-8.058,2.444-11.67,4.816l-5.028-4.162-8.925,8.925,4.162,5.028Zm39.999,6.981c6.413,6.414,6.414,16.813,0,23.227-6.415,6.414-16.814,6.414-23.227,0-6.414-6.414-6.414-16.813,0-23.228,6.414-6.414,16.812-6.414,23.227,0Z" style="fill: rgb(64, 255, 116); transform-origin: 342.738px 95.107px;" id="elqnwy4o7qs3" class="animable"></path><g id="elhykmypvj78m"><path d="M314.352,76.512c-2.371,3.612-3.966,7.579-4.816,11.671l-6.517,.613v12.621l6.518,.614c.849,4.091,2.444,8.058,4.816,11.67l-4.162,5.028,8.924,8.924,5.028-4.162c3.612,2.371,7.579,3.966,11.67,4.816l.614,6.518h12.621l.614-6.517c4.092-.85,8.058-2.445,11.671-4.816l5.028,4.162,8.925-8.924-4.162-5.028c2.371-3.612,3.966-7.579,4.816-11.67l6.516-.614v-12.621l-6.516-.614c-.85-4.091-2.445-8.058-4.817-11.67l4.162-5.028-8.924-8.924-5.028,4.162c-3.612-2.372-7.58-3.967-11.67-4.817l-.614-6.517h-12.621l-.614,6.518c-4.091,.85-8.058,2.444-11.67,4.816l-5.028-4.162-8.925,8.925,4.162,5.028Zm39.999,6.981c6.413,6.414,6.414,16.813,0,23.227-6.415,6.414-16.814,6.414-23.227,0-6.414-6.414-6.414-16.813,0-23.228,6.414-6.414,16.812-6.414,23.227,0Z" style="fill: rgb(255, 255, 255); opacity: 0.4; transform-origin: 342.738px 95.107px;" class="animable"></path></g></g><g id="elrpxt4dlj2yg" class="animable" style="transform-origin: 274.141px 61.5165px;"><path d="M257.924,50.894c-1.355,2.063-2.266,4.33-2.752,6.668l-3.723,.351v7.211l3.724,.351c.485,2.337,1.396,4.603,2.751,6.667l-2.378,2.872,5.099,5.099,2.872-2.378c2.064,1.355,4.33,2.266,6.667,2.751l.351,3.724h7.21l.351-3.724c2.338-.486,4.604-1.397,6.668-2.752l2.873,2.378,5.099-5.099-2.378-2.873c1.355-2.064,2.266-4.33,2.751-6.668l3.723-.351v-7.211l-3.723-.351c-.485-2.337-1.397-4.604-2.752-6.667l2.378-2.872-5.099-5.099-2.872,2.378c-2.064-1.355-4.33-2.267-6.667-2.752l-.351-3.724h-7.211l-.351,3.724c-2.337,.485-4.604,1.396-6.667,2.751l-2.873-2.378-5.099,5.099,2.378,2.873Zm22.852,3.988c3.664,3.664,3.664,9.606,0,13.27-3.665,3.665-9.606,3.664-13.27,0-3.665-3.665-3.665-9.606,0-13.27,3.665-3.664,9.606-3.665,13.27,0Z" style="fill: rgb(64, 255, 116); transform-origin: 274.141px 61.5165px;" id="elf73kh7lx9mg" class="animable"></path><g id="elp3gitzp43ma"><path d="M257.924,50.894c-1.355,2.063-2.266,4.33-2.752,6.668l-3.723,.351v7.211l3.724,.351c.485,2.337,1.396,4.603,2.751,6.667l-2.378,2.872,5.099,5.099,2.872-2.378c2.064,1.355,4.33,2.266,6.667,2.751l.351,3.724h7.21l.351-3.724c2.338-.486,4.604-1.397,6.668-2.752l2.873,2.378,5.099-5.099-2.378-2.873c1.355-2.064,2.266-4.33,2.751-6.668l3.723-.351v-7.211l-3.723-.351c-.485-2.337-1.397-4.604-2.752-6.667l2.378-2.872-5.099-5.099-2.872,2.378c-2.064-1.355-4.33-2.267-6.667-2.752l-.351-3.724h-7.211l-.351,3.724c-2.337,.485-4.604,1.396-6.667,2.751l-2.873-2.378-5.099,5.099,2.378,2.873Zm22.852,3.988c3.664,3.664,3.664,9.606,0,13.27-3.665,3.665-9.606,3.664-13.27,0-3.665-3.665-3.665-9.606,0-13.27,3.665-3.664,9.606-3.665,13.27,0Z" style="fill: rgb(255, 255, 255); opacity: 0.7; transform-origin: 274.141px 61.5165px;" class="animable"></path></g></g></g><g id="freepik--Device--inject-76" class="animable" style="transform-origin: 349.765px 285.73px;"><g id="elpwrwjklo92h" class="animable" style="transform-origin: 349.765px 285.73px;"><rect x="132.932" y="106.246" width="433.667" height="302.044" rx="19.252" ry="19.252" style="fill: rgb(38, 50, 56); transform-origin: 349.765px 257.268px;" id="el2spkfirli4" class="animable"></rect><g id="eljxgy6dp840s"><path d="M149.981,113.951h398.156c6.215,0,11.262,5.046,11.262,11.262v234.177H142.343V121.588c0-4.215,3.422-7.637,7.637-7.637Z" style="fill: rgb(255, 255, 255); opacity: 0.1; transform-origin: 350.871px 236.671px;" class="animable"></path></g><g id="eltge12af1ve"><path d="M132.932,359.05h433.667v30.654c0,10.257-8.328,18.585-18.585,18.585H151.355c-10.168,0-18.423-8.255-18.423-18.423v-30.816h0Z" style="fill: rgb(255, 255, 255); opacity: 0.8; transform-origin: 349.765px 383.669px;" class="animable"></path></g><g id="elmln9xe1a46d" class="animable" style="transform-origin: 354.207px 436.753px;"><polygon points="442.229 465.215 266.185 465.215 277.926 408.29 427.44 408.29 442.229 465.215" style="fill: rgb(38, 50, 56); transform-origin: 354.207px 436.753px;" id="elqomr54rj2o" class="animable"></polygon><g id="elzpo3oav1hm"><polygon points="442.229 465.215 266.185 465.215 277.926 408.29 427.44 408.29 442.229 465.215" style="fill: rgb(255, 255, 255); opacity: 0.8; transform-origin: 354.207px 436.753px;" class="animable"></polygon></g><g id="elrqyap9gs95"><polygon points="430.417 419.752 275.471 419.752 277.926 408.29 427.44 408.29 430.417 419.752" style="opacity: 0.2; transform-origin: 352.944px 414.021px;" class="animable"></polygon></g></g></g><path d="M459.335,408.664h-195.962c-.207,0-.375-.168-.375-.375s.168-.375,.375-.375h195.962c.207,0,.375,.168,.375,.375s-.168,.375-.375,.375Z" style="fill: rgb(38, 50, 56); transform-origin: 361.354px 408.289px;" id="elh3tim1h7jyl" class="animable"></path></g><g id="freepik--Gear_1--inject-76" class="animable" style="transform-origin: 153.137px 230.505px;"><path d="M103.293,197.852c-4.165,6.342-6.965,13.309-8.458,20.494l-11.444,1.077v22.163l11.445,1.079c1.49,7.183,4.292,14.15,8.457,20.494l-7.31,8.829,15.672,15.672,8.829-7.309c6.343,4.164,13.309,6.966,20.494,8.457l1.078,11.445h22.163l1.078-11.445c7.185-1.493,14.151-4.294,20.494-8.458l8.829,7.309,15.672-15.672-7.309-8.829c4.164-6.343,6.965-13.309,8.456-20.494l11.443-1.078,.002-22.163-11.444-1.079c-1.492-7.184-4.294-14.15-8.458-20.493l7.31-8.829-15.672-15.672-8.829,7.309c-6.343-4.165-13.31-6.967-20.494-8.458l-1.079-11.444h-22.163l-1.078,11.445c-7.185,1.492-14.151,4.292-20.493,8.457l-8.829-7.31-15.672,15.672,7.31,8.829Zm70.49,13.017c11.401,11.401,11.402,29.888,0,41.29-11.403,11.403-29.89,11.401-41.291,0-11.402-11.402-11.402-29.888,0-41.291,11.402-11.402,29.887-11.402,41.29,0Z" style="fill: rgb(64, 255, 116); transform-origin: 153.137px 230.505px;" id="elumoehsxlpo" class="animable"></path></g><g id="freepik--Tab--inject-76" class="animable" style="transform-origin: 349.835px 214.793px;"><g id="el4jho2utrc4x"><path d="M176.749,332.599h352.79v12.436c0,1.801-1.462,3.263-3.263,3.263H180.87c-2.274,0-4.12-1.846-4.12-4.12v-11.58h0Z" style="opacity: 0.3; transform-origin: 353.144px 340.448px;" class="animable"></path></g><g id="eljnsmhrntkv" class="animable" style="transform-origin: 349.835px 208.234px;"><g id="el41vbd5iweiy" class="animable" style="transform-origin: 349.8px 212.339px;"><path d="M169.732,89.497h360.137c3.711,0,6.725,3.013,6.725,6.725v232.233c0,3.711-3.013,6.725-6.725,6.725H169.732c-3.711,0-6.725-3.013-6.725-6.725V96.222c0-3.711,3.013-6.724,6.724-6.724Z" style="fill: rgb(64, 255, 116); transform-origin: 349.8px 212.339px;" id="elv086h9z80ye" class="animable"></path><g id="elig35ro8vhm"><path d="M169.732,89.497h360.137c3.711,0,6.725,3.013,6.725,6.725v232.233c0,3.711-3.013,6.725-6.725,6.725H169.732c-3.711,0-6.725-3.013-6.725-6.725V96.222c0-3.711,3.013-6.724,6.724-6.724Z" style="fill: rgb(255, 255, 255); opacity: 0.6; transform-origin: 349.8px 212.339px;" class="animable"></path></g></g><path d="M536.663,109.689H163.008v-15.295c0-2.704,2.192-4.896,4.896-4.896h362.138c3.657,0,6.621,2.964,6.621,6.621v13.571Z" style="fill: rgb(64, 255, 116); transform-origin: 349.836px 99.594px;" id="el2icnbwa676c" class="animable"></path><path d="M529.681,99.096c.518,2.739-1.837,5.096-4.576,4.578-1.522-.288-2.767-1.532-3.056-3.054-.521-2.741,1.838-5.1,4.579-4.58,1.521,.289,2.766,1.534,3.054,3.056Z" style="fill: rgb(255, 255, 255); transform-origin: 525.865px 99.8568px;" id="elq5nyw3la3dd" class="animable"></path><path d="M518.628,99.096c.519,2.74-1.838,5.097-4.577,4.578-1.522-.288-2.767-1.533-3.056-3.054-.52-2.74,1.838-5.099,4.578-4.579,1.522,.289,2.766,1.534,3.055,3.056Z" style="fill: rgb(255, 255, 255); transform-origin: 514.811px 99.8574px;" id="eltv9588znfee" class="animable"></path><path d="M507.576,99.096c.519,2.739-1.837,5.096-4.576,4.578-1.522-.288-2.767-1.532-3.056-3.054-.521-2.741,1.837-5.1,4.578-4.58,1.522,.289,2.766,1.534,3.054,3.056Z" style="fill: rgb(255, 255, 255); transform-origin: 503.76px 99.8568px;" id="elowymw0ozh3c" class="animable"></path><rect x="195.128" y="143.88" width="7.682" height="7.682" style="fill: rgb(38, 50, 56); transform-origin: 198.969px 147.721px;" id="elm0d50mqqzlf" class="animable"></rect><rect x="195.128" y="162.076" width="7.682" height="7.682" style="fill: rgb(64, 255, 116); transform-origin: 198.969px 165.917px;" id="el1kvck5i35iri" class="animable"></rect><rect x="195.128" y="180.273" width="7.682" height="7.682" style="fill: rgb(38, 50, 56); transform-origin: 198.969px 184.114px;" id="eltl57en26exr" class="animable"></rect><rect x="195.128" y="198.47" width="7.682" height="7.682" style="fill: rgb(64, 255, 116); transform-origin: 198.969px 202.311px;" id="elewu6g9ohwy" class="animable"></rect><rect x="195.128" y="216.667" width="7.682" height="7.682" style="fill: rgb(38, 50, 56); transform-origin: 198.969px 220.508px;" id="el4ex589at8gg" class="animable"></rect><rect x="195.128" y="234.864" width="7.682" height="7.682" style="fill: rgb(64, 255, 116); transform-origin: 198.969px 238.705px;" id="elfrwwqnhi4rl" class="animable"></rect><rect x="195.128" y="253.061" width="7.682" height="7.682" style="fill: rgb(38, 50, 56); transform-origin: 198.969px 256.902px;" id="el17u4yj3kch" class="animable"></rect><rect x="195.128" y="271.258" width="7.682" height="7.682" style="fill: rgb(64, 255, 116); transform-origin: 198.969px 275.099px;" id="elwkxe0xft9q" class="animable"></rect><rect x="195.128" y="289.454" width="7.682" height="7.682" style="fill: rgb(38, 50, 56); transform-origin: 198.969px 293.295px;" id="el8t7r8vowu72" class="animable"></rect><rect x="195.128" y="307.651" width="7.682" height="7.682" style="fill: rgb(64, 255, 116); transform-origin: 198.969px 311.492px;" id="ellndlaejelvq" class="animable"></rect><rect x="239.255" y="143.88" width="34.885" height="7.682" style="fill: rgb(64, 255, 116); transform-origin: 256.697px 147.721px;" id="elmw6dbs2od8n" class="animable"></rect><rect x="239.255" y="180.592" width="34.885" height="7.682" style="fill: rgb(255, 255, 255); transform-origin: 256.697px 184.433px;" id="elf1e81badl8" class="animable"></rect><rect x="239.255" y="162.076" width="79.9" height="7.682" style="fill: rgb(64, 255, 116); transform-origin: 279.205px 165.917px;" id="elxutc7yerrx" class="animable"></rect><rect x="328.009" y="162.076" width="45.388" height="7.682" style="fill: rgb(255, 255, 255); transform-origin: 350.703px 165.917px;" id="elpbvor9fodfa" class="animable"></rect><rect x="239.255" y="197.027" width="79.9" height="7.682" style="fill: rgb(64, 255, 116); transform-origin: 279.205px 200.868px;" id="els58zelvgkbj" class="animable"></rect><rect x="328.009" y="197.027" width="45.388" height="7.682" style="fill: rgb(64, 255, 116); transform-origin: 350.703px 200.868px;" id="elicwsgymjsqd" class="animable"></rect><rect x="274.878" y="216.497" width="60.362" height="7.682" style="fill: rgb(64, 255, 116); transform-origin: 305.059px 220.338px;" id="ellt5v9bikqo9" class="animable"></rect><rect x="383.873" y="197.027" width="21.697" height="7.682" style="fill: rgb(255, 255, 255); transform-origin: 394.721px 200.868px;" id="elzh3kr2hlr7" class="animable"></rect><rect x="239.255" y="253.061" width="79.9" height="7.682" style="fill: rgb(64, 255, 116); transform-origin: 279.205px 256.902px;" id="elpvls4lx82" class="animable"></rect><rect x="328.009" y="253.061" width="45.388" height="7.682" style="fill: rgb(64, 255, 116); transform-origin: 350.703px 256.902px;" id="eleykb2jcaa6q" class="animable"></rect><rect x="318.353" y="271.641" width="81.931" height="7.682" style="fill: rgb(64, 255, 116); transform-origin: 359.319px 275.482px;" id="el4308g1kkipt" class="animable"></rect><rect x="406.64" y="271.641" width="55.136" height="7.682" style="fill: rgb(64, 255, 116); transform-origin: 434.208px 275.482px;" id="el1m7se5vzkcsj" class="animable"></rect><rect x="383.873" y="253.061" width="21.697" height="7.682" style="fill: rgb(255, 255, 255); transform-origin: 394.721px 256.902px;" id="el8zvig7jdyrc" class="animable"></rect><rect x="238.937" y="271.641" width="71.126" height="7.682" style="fill: rgb(255, 255, 255); transform-origin: 274.5px 275.482px;" id="elv7n61l3xoj" class="animable"></rect><rect x="344.63" y="216.497" width="21.697" height="7.682" style="fill: rgb(255, 255, 255); transform-origin: 355.478px 220.338px;" id="elkshxe11c53a" class="animable"></rect><rect x="429.998" y="233.988" width="43.284" height="7.682" style="fill: rgb(64, 255, 116); transform-origin: 451.64px 237.829px;" id="elg7hf8b1zqy7" class="animable"></rect><rect x="478.786" y="233.988" width="20.763" height="7.682" style="fill: rgb(64, 255, 116); transform-origin: 489.168px 237.829px;" id="elfv1ze7mkgcl" class="animable"></rect><rect x="282.968" y="180.574" width="52.915" height="7.682" style="fill: rgb(64, 255, 116); transform-origin: 309.425px 184.415px;" id="elz8scf0k89ho" class="animable"></rect><rect x="416.618" y="197.027" width="58.64" height="7.682" style="fill: rgb(64, 255, 116); transform-origin: 445.938px 200.868px;" id="el76lbjb4ejxx" class="animable"></rect><rect x="274.878" y="233.988" width="60.362" height="7.682" style="fill: rgb(64, 255, 116); transform-origin: 305.059px 237.829px;" id="eluoayep8595" class="animable"></rect><rect x="344.63" y="233.988" width="77.465" height="7.682" style="fill: rgb(64, 255, 116); transform-origin: 383.363px 237.829px;" id="el2n8tti0gpdb" class="animable"></rect><rect x="383.276" y="162.076" width="70.665" height="7.682" style="fill: rgb(64, 255, 116); transform-origin: 418.608px 165.917px;" id="el2mha2osikqm" class="animable"></rect><rect x="239.255" y="289.454" width="49.678" height="7.682" style="fill: rgb(64, 255, 116); transform-origin: 264.094px 293.295px;" id="el5osa678dae" class="animable"></rect><rect x="239.255" y="308.281" width="14.756" height="7.682" style="fill: rgb(64, 255, 116); transform-origin: 246.633px 312.122px;" id="elbkxpbukjna5" class="animable"></rect><path d="M217.882,140.58v178.803c0,1.448,2.25,1.45,2.25,0V140.58c0-1.448-2.25-1.45-2.25,0h0Z" style="fill: rgb(64, 255, 116); transform-origin: 219.007px 229.982px;" id="elui8oggqpfp" class="animable"></path><g id="elcmm9w72i4tj" class="animable" style="transform-origin: 423.45px 81.788px;"><path d="M439.533,82.288h-49.986c-.276,0-.5-.224-.5-.5s.224-.5,.5-.5h49.986c.276,0,.5,.224,.5,.5s-.224,.5-.5,.5Z" style="fill: rgb(64, 255, 116); transform-origin: 414.54px 81.788px;" id="el65789ocldz" class="animable"></path><path d="M457.353,82.288h-12.034c-.276,0-.5-.224-.5-.5s.224-.5,.5-.5h12.034c.276,0,.5,.224,.5,.5s-.224,.5-.5,.5Z" style="fill: rgb(64, 255, 116); transform-origin: 451.336px 81.788px;" id="elv231vf1j3k" class="animable"></path></g></g></g><g id="freepik--Speech_Bubble--inject-76" class="animable" style="transform-origin: 674.41px 145.449px;"><g id="ellcwiei5tj1c" class="animable" style="transform-origin: 674.41px 145.449px;"><g id="el59vlu44hbh7" class="animable" style="transform-origin: 674.41px 145.449px;"><path d="M685.229,129.648c-8.727-6.753-21.275-5.153-28.028,3.574-5.213,6.737-5.428,15.742-1.249,22.61l-1.746,5.741,6.317-.539c.087,.07,.163,.147,.252,.216,8.727,6.753,21.275,5.153,28.028-3.574,6.753-8.727,5.153-21.275-3.574-28.028Z" style="fill: rgb(64, 255, 116); transform-origin: 673.008px 145.449px;" id="elys1rt5qcl0e" class="animable"></path><g id="elodxde28dtb"><path d="M685.229,129.648c-8.727-6.753-21.275-5.153-28.028,3.574-5.213,6.737-5.428,15.742-1.249,22.61l-1.746,5.741,6.317-.539c.087,.07,.163,.147,.252,.216,8.727,6.753,21.275,5.153,28.028-3.574,6.753-8.727,5.153-21.275-3.574-28.028Z" style="fill: rgb(255, 255, 255); opacity: 0.7; transform-origin: 673.008px 145.449px;" class="animable"></path></g><path d="M695.512,145.486h-.013c-.139-.007-.244-.125-.237-.263,.335-6.379-2.807-12.9-8.003-16.614-.112-.081-.138-.237-.058-.349,.08-.113,.237-.138,.349-.058,5.331,3.811,8.555,10.502,8.212,17.048-.008,.133-.118,.237-.25,.237Z" style="fill: rgb(64, 255, 116); transform-origin: 691.471px 136.821px;" id="eldlzmoelzps8" class="animable"></path><path d="M694.709,151.357c-.032,0-.064-.006-.095-.019-.128-.052-.189-.198-.137-.326,.362-.88,.543-1.849,.522-2.8-.003-.138,.106-.252,.244-.255h.006c.136,0,.247,.108,.25,.245,.022,1.02-.172,2.058-.56,3.001-.04,.097-.133,.155-.231,.155Z" style="fill: rgb(64, 255, 116); transform-origin: 694.98px 149.657px;" id="elxih8rteaj4s" class="animable"></path></g><g id="elsgz7oyte76g" class="animable" style="transform-origin: 673.52px 145.449px;"><g id="elpfeysvybawq"><rect x="665.299" y="143.772" width="16.443" height="3.355" style="fill: rgb(64, 255, 116); transform-origin: 673.52px 145.45px; transform: rotate(136.072deg);" class="animable"></rect></g><g id="eli1ke3756xlc"><rect x="665.299" y="143.772" width="16.443" height="3.355" style="fill: rgb(64, 255, 116); transform-origin: 673.52px 145.45px; transform: rotate(46.072deg);" class="animable"></rect></g></g></g></g><g id="freepik--Character--inject-76" class="animable" style="transform-origin: 581.427px 292.202px;"><g id="el44zxmlem8ov" class="animable" style="transform-origin: 581.427px 292.202px;"><g id="elp91z0zwc7d" class="animable" style="transform-origin: 652.14px 188.264px;"><path d="M677.934,193.313c5.347-2.562,8.539-8.973,7.362-14.784-3.096,1.195-6.224,2.399-9.507,2.884-3.283,.485-6.782,.197-9.665-1.447-2.171-1.239-3.857-3.154-5.579-4.965-1.722-1.811-3.596-3.6-5.942-4.46-2.347-.86-5.288-.565-6.92,1.328l-3.588,5.105c2.205-.396,4.432,1.025,5.6,2.937,1.169,1.912,1.479,4.217,1.616,6.454,.137,2.236,.131,4.512,.762,6.662,.807,2.751,2.621,5.123,4.777,7.013,4.785,4.195,11.509,6.174,17.757,4.965,6.248-1.21,11.833-5.678,14.132-11.612-3.573,.569-7.24,.542-10.805-.079Z" style="fill: rgb(38, 50, 56); transform-origin: 666.417px 187.719px;" id="eljcpx1nqe6ff" class="animable"></path><g id="ely2bjpcqz9da" class="animable" style="transform-origin: 632.774px 188.264px;"><path d="M629.645,166.225s-8.685,14.016-9.279,18.478c-3.184,2.457-5.104-2.929-4.649-10.001,.373-5.789,3.695-11.895,8.81-13.906,7.185-2.824,5.118,5.429,5.118,5.429Z" style="fill: rgb(38, 50, 56); transform-origin: 622.786px 172.757px;" id="elqa0yzhg51i" class="animable"></path><g id="eltue5e5t73m" class="animable" style="transform-origin: 632.774px 188.264px;"><g id="elmd3cezbesno" class="animable" style="transform-origin: 632.774px 188.264px;"><path d="M641.472,190.843l-10.24,5.534-2.102,2.075c.502,1.542,.91,3.12,1.014,4.624,.16,1.958-1.657,3.434-3.06,4.706-2.017,1.006,1.863,10.285,1.863,10.285l13.271-13.735c-2.476-6.071-1.848-10.977-.745-13.489Z" style="fill: rgb(253, 187, 181); transform-origin: 634.36px 204.455px;" id="eln6ijtlhhw9h" class="animable"></path><g id="elslqzloqwi9e"><path d="M630.177,203.658c2.89-1.401,6.148-3.978,6.06-7.245-.046-1.376-.231-2.693-.487-3.548l-6.214,6.926c.358,1.231,.459,2.034,.642,3.867Z" style="opacity: 0.2; transform-origin: 632.887px 198.262px;" class="animable"></path></g><path d="M645.837,176.535c-1.811,10.199-2.361,14.543-8.121,19.484-8.664,7.432-20.708,3.667-21.959-6.7-1.126-9.331,2.024-24.442,12.48-27.908,10.302-3.415,19.411,4.926,17.6,15.125Z" style="fill: rgb(253, 187, 181); transform-origin: 630.805px 180.27px;" id="eluovr6gdyd3i" class="animable"></path><path d="M631.698,179.48c-.055,.966-.649,1.759-1.328,1.773-.678,.014-1.184-.758-1.129-1.724,.055-.966,.649-1.759,1.328-1.773,.678-.014,1.184,.758,1.129,1.724Z" style="fill: rgb(38, 50, 56); transform-origin: 630.469px 179.504px;" id="elqg2rta57jug" class="animable"></path><path d="M621.937,178.258c0,.937-.546,1.741-1.22,1.795-.674,.054-1.222-.663-1.222-1.6,0-.937,.546-1.74,1.22-1.794,.674-.054,1.221,.662,1.222,1.6Z" style="fill: rgb(38, 50, 56); transform-origin: 620.716px 178.356px;" id="elojdtto3uxe" class="animable"></path><path d="M634.598,176.296c-.132,.002-.261-.049-.354-.152-1.444-1.614-3.274-1.268-3.295-1.264-.271,.052-.524-.123-.559-.398-.034-.275,.16-.542,.435-.597,.096-.019,2.393-.455,4.184,1.549,.178,.2,.152,.521-.059,.717-.102,.094-.228,.143-.352,.145Z" style="fill: rgb(38, 50, 56); transform-origin: 632.757px 175.064px;" id="eluq0p98b6ro8" class="animable"></path><path d="M618.743,173.42c-.117-.045-.215-.131-.266-.251-.106-.246,.023-.537,.288-.649,2.659-1.129,4.632,.056,4.715,.108,.234,.144,.291,.446,.126,.675-.164,.228-.486,.296-.72,.154-.077-.047-1.621-.944-3.735-.047-.137,.058-.283,.058-.407,.01Z" style="fill: rgb(38, 50, 56); transform-origin: 621.07px 172.783px;" id="elwh6kxxjefn8" class="animable"></path><path d="M620.042,164.079c2.396-4.423,11.473-8.204,21.466-3.34,14.972,5.887,6.486,30.223,2.159,25.121-1.177-1.387-2.159-2.755-2.979-4.065-4.928-7.871-12.039-14.137-20.613-17.703l-.033-.014Z" style="fill: rgb(38, 50, 56); transform-origin: 635.024px 172.509px;" id="el6m4s3miuyz" class="animable"></path><path d="M648.238,185.176c-1.392,2.005-3.477,3.162-5.324,3.463-2.778,.452-3.813-4.041-2.654-6.688,1.044-2.383,3.854-3.781,6.457-3.022,2.564,.748,3.113,3.955,1.521,6.248Z" style="fill: rgb(253, 187, 181); transform-origin: 644.462px 183.696px;" id="el9dqrzy569kg" class="animable"></path><path d="M624.907,177.6s-1.933,3.712-3.95,5.957c-.352,.392-.208,1.021,.27,1.244,1.229,.574,2.751,.277,2.751,.277l.93-7.478Z" style="fill: rgb(239, 120, 120); transform-origin: 622.835px 181.377px;" id="elowcadohnbe" class="animable"></path></g><path d="M630.776,177.733l-2.367-.562s1.293,1.767,2.367,.562Z" style="fill: rgb(38, 50, 56); transform-origin: 629.592px 177.662px;" id="elf4rd0d23xy" class="animable"></path><path d="M621.061,176.686l-2.396-.42c1.111,1.343,2.073,.829,2.396,.42Z" style="fill: rgb(38, 50, 56); transform-origin: 619.863px 176.7px;" id="elzf17ku83sk8" class="animable"></path></g><g id="el6vuv0x4ukcj"><path d="M643.667,186.11c-.118,0-.224-.084-.246-.204-.025-.136,.064-.266,.2-.292,1.498-.281,2.202-1.008,2.528-1.568,.36-.618,.364-1.197,.259-1.506-.214-.624-.967-1.149-1.705-.906-.137,.046-.273-.029-.315-.159-.043-.131,.028-.272,.159-.315,1.03-.337,2.039,.356,2.334,1.219,.146,.428,.146,1.157-.3,1.92-.379,.65-1.184,1.492-2.868,1.808-.016,.003-.031,.004-.046,.004Z" style="opacity: 0.2; transform-origin: 645.192px 183.592px;" class="animable"></path></g></g><path d="M622.869,188.395c.718,1.173,1.559,3.431,1.559,3.431,.218-.039,.437-.079,.652-.129,2.947-.607,4.114-1.863,4.513-3.07,.216-.661,.194-1.315,.109-1.833-.093-.601-.296-1.008-.296-1.008-1.37,1.255-4.074,2.033-5.535,2.388-.61,.155-1.001,.223-1.001,.223Z" style="fill: rgb(38, 50, 56); transform-origin: 626.316px 188.806px;" id="elp4k849quy2" class="animable"></path><path d="M623.87,188.173l.485,.999c2.774-.579,4.65-1.358,5.346-2.379-.093-.601-.296-1.008-.296-1.008-1.37,1.255-4.074,2.033-5.535,2.388Z" style="fill: rgb(255, 255, 255); transform-origin: 626.785px 187.479px;" id="el23updwkl2uy" class="animable"></path><path d="M625.079,191.697c2.947-.607,4.114-1.863,4.513-3.07-.996,.245-2.17,.652-3.139,1.323-.743,.509-1.145,1.143-1.375,1.747Z" style="fill: rgb(255, 75, 75); transform-origin: 627.335px 190.162px;" id="elfyuy1s2fuew" class="animable"></path></g><g id="elotc3kr32j9g" class="animable" style="transform-origin: 629.555px 335.272px;"><path d="M617.703,208.202c-4.881,2.391-8.583,6.648-10.305,11.803-3.09,9.247-4.864,23.437-4.864,23.437l-15.248-14.119-9.627,7.747s22.484,29.697,25.221,30.427c8.093,2.158,12.53-16.428,12.53-16.428l2.84-43.134-.547,.268Z" style="fill: rgb(64, 255, 116); transform-origin: 597.955px 237.803px;" id="el9pgsq900h1i" class="animable"></path><g id="el5m7vyc7247g" class="animable" style="transform-origin: 654.391px 456.12px;"><path d="M662.262,450.129l-1.053,1.467-2.09-.901-1.303,6.444-8.817,12.316s-3.355,.537-.712-6.461c.12-.318,.216-.669,.279-1.06,.785-4.186-.942-12.212-.942-12.212l4.838-6.758s.504,.008,1.363,.149c2.004,.335,6.012,1.312,8.438,7.014Z" style="fill: rgb(64, 255, 116); transform-origin: 654.768px 456.214px;" id="elu9zjlv8aodq" class="animable"></path><g id="elaclve8tl298"><path d="M662.262,450.129l-1.053,1.467-2.09-.901-1.303,6.444-8.817,12.316s-3.355,.537-.712-6.461c.12-.318,.216-.669,.279-1.06,.785-4.186-.942-12.212-.942-12.212l4.838-6.758s.504,.008,1.363,.149c2.004,.335,6.012,1.312,8.438,7.014Z" style="opacity: 0.2; transform-origin: 654.768px 456.214px;" class="animable"></path></g><path d="M653.824,443.116l.02,.015c-1.625,.174-.199,7.388-.853,11.435-.589,3.611-2.146,7.017-4.426,7.37,.785-4.186-2.046-13.726-2.046-13.726l3.891-5.434s2.556,.199,3.414,.34Z" style="fill: rgb(239, 120, 120); transform-origin: 650.181px 452.356px;" id="el8pquc6jnsce" class="animable"></path></g><g id="elqc0ob2uzmhs" class="animable" style="transform-origin: 637.865px 462.031px;"><path d="M648.765,468.998l-1.797-.003-.499-2.236-5.946,2.706h-15.066s-2.396-2.428,4.779-4.363c.326-.088,.665-.215,1.016-.392,3.826-1.808,9.271-7.917,9.271-7.917h8.267s.288,.417,.677,1.201c.903,1.834,2.463,5.682-.703,11.003Z" style="fill: rgb(64, 255, 116); transform-origin: 637.865px 463.129px;" id="elx8kr5irr2i" class="animable"></path><path d="M649.467,457.996v.025c-1.092-1.227-6.059,4.161-9.697,5.995-3.249,1.632-6.9,2.352-8.518,.696,3.826-1.808,9.901-10.115,9.901-10.115l6.642,.203s1.282,2.412,1.671,3.197Z" style="fill: rgb(253, 187, 181); transform-origin: 640.359px 460.125px;" id="elfz61ywsvwre" class="animable"></path></g><path d="M633.697,391.265c-4.101-10.456-9.122-20.741-15.154-29.064,24.657-65.433,23.885-94.707,23.885-94.707l-29.692-.022-3.164,10.943s-7.419,27.242-9.581,42.88l-6.197,34.767v.098c-.421,7.22,1.301,14.391,4.995,20.74,4.035,6.938,11.172,15.174,15.088,22.651,5.152,9.868,10.015,19.76,14.169,28.61,4.377,9.328,7.938,17.48,10.16,23.143,2.103,.22,8.451-3.31,10.278-6.509,0,0-4.495-27.286-14.786-53.53Z" style="fill: rgb(38, 50, 56); transform-origin: 621.108px 359.393px;" id="el19yn3meyg75" class="animable"></path><g id="el5we5xb2w059"><path d="M625.406,348.832c3.617-12.022,7.667-18.873,9.507-27.802,.016-2.084-6.91-11.006-10.437-14.6,0,0-4.243,17.051,.93,42.403Z" style="opacity: 0.2; transform-origin: 628.876px 327.632px;" class="animable"></path></g><g id="el7tsxxt0haf7"><path d="M628.045,428.161c4.377,9.328,7.938,17.48,10.16,23.143,2.103,.22,8.451-3.31,10.278-6.509,0,0-4.495-27.286-14.786-53.53-2.09,10.836-4.429,24.528-5.652,36.896Z" style="opacity: 0.2; transform-origin: 638.264px 421.289px;" class="animable"></path></g><path d="M620.233,268.092s11.301,72.278,12.616,88.55c0,0,6.981,78.938,5.73,98.778l15.571,.7s10.473-59.787,5.177-98.155c-.46-5.002,4.364-37.623,5.126-50.618,1.834-31.264-11.879-39.853-11.879-39.853l-32.342,.597Z" style="fill: rgb(38, 50, 56); transform-origin: 642.427px 361.807px;" id="ely8a28ra83z" class="animable"></path><g id="ele9jfzdazylb"><polygon points="639.953 269.315 642.428 308.123 664.623 305.477 664.623 301.488 639.953 269.315" style="opacity: 0.2; transform-origin: 652.288px 288.719px;" class="animable"></polygon></g><path d="M650.689,270.285c.868-9.845,4.364-27.887,10.383-46.835,1.958-6.162-1.363-13.118-1.363-13.118,0,0-8.192-.212-9.02-.305-.907-.106-1.84-.199-2.773-.278-7.031-.583-12.788-1.007-19.058-.649-1.577,.093-3.194,.225-4.784,.358-.513,.053-3.84,.103-4.34,.156,0,0-9.015,10.548-9.501,17.995-.263,4.161-2.273,5.951-2.05,15.902,.039,6.758,4.944,16.603,5.391,26.104l37.115,.67Z" style="fill: rgb(255, 255, 255); transform-origin: 634.928px 239.627px;" id="eltrx6b92uz4d" class="animable"></path><path d="M643.679,304.97l26.119-2.73-16.549-46.368s1.371-.464,3.737-9.341c1.143-4.32,2.339-8.904,3.351-12.986,1.472-5.883,2.576-10.759,2.655-12.349,.263-4.969-5.763-12.85-5.763-12.85l-15.286-1.883s-2.924,10.558-3.541,30.739c-.618,20.167,5.278,67.767,5.278,67.767Z" style="fill: rgb(64, 255, 116); transform-origin: 654.077px 255.716px;" id="elhv6ppz7f41a" class="animable"></path><path d="M628.752,205.295s-13.139,15.855-16.366,27.294c-2.122,7.523,2.063,29.197,1.575,34.931-.804,9.45-4.979,21.016-10.39,37.957l-3.579-.508,9.858-37.497s-4.561-28.255-3.348-35.325c1.213-7.07,11.75-24.213,11.75-24.213l4.809-.331,5.692-2.308Z" style="fill: rgb(64, 255, 116); transform-origin: 614.372px 255.386px;" id="elm4uaekc3xx" class="animable"></path><path d="M642.338,204.242s-5.91,11.665-3.675,41.018l9.819-21.101-3.554-5.766,4.717-9.425s-5.045-3.245-7.165-4.961l-.142,.235Z" style="fill: rgb(64, 255, 116); transform-origin: 643.902px 224.634px;" id="el9ysjdwixjwo" class="animable"></path><g id="el90q7zi7ljjl"><path d="M655.08,244.132c.434,1.113,1.104,1.882,1.906,2.398,1.143-4.32,2.339-8.904,3.351-12.986-2.655-3.233-4.903-5.936-4.903-5.936,0,0-3.062,9.58-.355,16.523Z" style="opacity: 0.2; transform-origin: 657.149px 237.069px;" class="animable"></path></g><path d="M656.813,208.315c5.76-.248,19.059,27.459,24.253,40.963,1.539,4.001-1.846,9.13-4.821,9.95-6.667,1.839-40.055,3.682-40.055,3.682l-1.267-9.94,28.397-5.949-9.085-13.702s-3.4-6.911-2.765-13.321c.635-6.41,5.343-11.683,5.343-11.683Z" style="fill: rgb(64, 255, 116); transform-origin: 658.187px 235.612px;" id="eldhx30k3f4lb" class="animable"></path><g id="el2hk5en8xlo"><g style="opacity: 0.2; transform-origin: 643.902px 224.634px;" class="animable"><path d="M642.338,204.242s-5.91,11.665-3.675,41.018l9.819-21.101-3.554-5.766,4.717-9.425s-5.045-3.245-7.165-4.961l-.142,.235Z" id="el2qugrcjffw9" class="animable" style="transform-origin: 643.902px 224.634px;"></path></g></g><g id="els604r7yn1j7"><path d="M663.32,247.022s4.206-.652,6.877,1.573c0,0-2.879-4.607-8.045-3.336l1.168,1.762Z" style="opacity: 0.2; transform-origin: 666.175px 246.816px;" class="animable"></path></g><path d="M612.08,245.431s-2.199-6.473-1.797-12.447c.402-5.974,.495-10.431,.495-10.431l6.778-5.009-.892-6.107s3.268-2.007,6.305-4.063c2.075-1.405,6.145-3.53,6.68-3.366,0,0-17.31,21.906-17.397,30.869-.084,8.644-.172,10.555-.172,10.555Z" style="fill: rgb(64, 255, 116); transform-origin: 619.941px 224.716px;" id="elb1asv0rs19" class="animable"></path><g id="el5o3i9rjx7cx"><path d="M612.08,245.431s-2.199-6.473-1.797-12.447c.402-5.974,.495-10.431,.495-10.431l6.778-5.009-.892-6.107s3.268-2.007,6.305-4.063c2.075-1.405,6.145-3.53,6.68-3.366,0,0-17.31,21.906-17.397,30.869-.084,8.644-.172,10.555-.172,10.555Z" style="opacity: 0.3; transform-origin: 619.941px 224.716px;" class="animable"></path></g><g id="el5ubrwinox0q"><path d="M609.403,264.605l-2.328-22.072v24.477s1.452-1.216,2.328-2.405Z" style="opacity: 0.3; transform-origin: 608.239px 254.772px;" class="animable"></path></g><g id="elcjf9bttjan"><polygon points="639.417 262.723 655.306 261.639 656.244 264.265 639.705 266.371 639.417 262.723" style="opacity: 0.2; transform-origin: 647.831px 264.005px;" class="animable"></polygon></g><path d="M625.28,209.849l4.754-7.528,3.052,3.751,7.979-4.993,1.415,2.929-3.264,9.576s-8.157,3.339-8.59,3.339-5.347-7.073-5.347-7.073Z" style="fill: rgb(255, 255, 255); transform-origin: 633.88px 209.001px;" id="elilmilo1eyr" class="animable"></path><g id="el6mbw5w6isu4"><polygon points="625.065 210.148 626.97 214.86 631.706 210.148 634.928 215.681 639.741 213.323 634.611 217.385 631.643 211.324 626.212 216.438 625.065 210.148" style="opacity: 0.3; transform-origin: 632.403px 213.766px;" class="animable"></polygon></g></g><path d="M571.977,222.692c4.357,4.732,9.122,9.044,13.931,13.282,2.457,2.073,36.558,29.889,39.075,31.882l3.755,3.032c1.346,1.231,3.278,1.744,5.229,1.389,2.16-.33,3.829-2.176,3.814-4.218,.053-1.854-.809-3.548-2.333-4.582l-3.827-2.944c-2.529-1.985-36.88-29.533-39.475-31.449-5.275-3.737-9.703-8.544-15.437-11.768-1.271-.75-3.959,.836-4.868,2.114-.752,1.057-.697,2.399,.134,3.262h0Z" style="fill: rgb(38, 50, 56); transform-origin: 604.548px 244.755px;" id="els8cvilk94mq" class="animable"></path><g id="el4kyzhzm4oc"><g style="opacity: 0.3; transform-origin: 604.548px 244.755px;" class="animable"><path d="M571.977,222.692c4.357,4.732,9.122,9.044,13.931,13.282,2.457,2.073,36.558,29.889,39.075,31.882l3.755,3.032c1.346,1.231,3.278,1.744,5.229,1.389,2.16-.33,3.829-2.176,3.814-4.218,.053-1.854-.809-3.548-2.333-4.582l-3.827-2.944c-2.529-1.985-36.88-29.533-39.475-31.449-5.275-3.737-9.703-8.544-15.437-11.768-1.271-.75-3.959,.836-4.868,2.114-.752,1.057-.697,2.399,.134,3.262h0Z" style="fill: rgb(255, 255, 255); transform-origin: 604.548px 244.755px;" id="elacnkn9wel94" class="animable"></path></g></g><g id="elbjnv8ddb54q" class="animable" style="transform-origin: 536.479px 177.305px;"><g id="elhx5e41wrqzm" class="animable" style="transform-origin: 536.794px 177.043px;"><path d="M547.82,163.453h-9.744l.297,38.836s13.886,.807,15.743-12.352c1.857-13.16-2.518-22.848-6.296-26.483Z" style="fill: rgb(64, 255, 116); transform-origin: 546.316px 182.876px;" id="eliscss2z15x" class="animable"></path><path d="M560.784,154.146c.407,1.758,.084,3.803-.467,5.499-.57,1.755-1.485,3.371-2.71,4.751-2.446,2.755-6.122,4.305-9.787,4.292-1.679-.006-1.683-2.616,0-2.611,2.947,.01,5.801-1.203,7.802-3.375,.96-1.042,1.697-2.31,2.145-3.654,.419-1.258,.805-2.886,.499-4.208-.379-1.635,2.138-2.333,2.517-.694h0Z" style="fill: rgb(64, 255, 116); transform-origin: 553.763px 160.95px;" id="elgrb0kw4r0ec" class="animable"></path><path d="M569.476,178.476c-5.426-2.38-11.886-1.848-16.924,1.214-1.439,.875-2.753-1.382-1.318-2.254,5.897-3.585,13.266-3.974,19.559-1.214,.651,.285,.788,1.224,.468,1.786-.381,.67-1.144,.75-1.786,.468h0Z" style="fill: rgb(64, 255, 116); transform-origin: 561.02px 177.15px;" id="elde746e6o95t" class="animable"></path><path d="M562.61,197.171c-2.326-4.922-6.788-8.59-12.086-9.867-1.632-.393-.941-2.911,.694-2.517,5.894,1.421,11.053,5.58,13.646,11.066,.301,.637,.177,1.408-.468,1.786-.568,.332-1.483,.172-1.786-.468h0Z" style="fill: rgb(64, 255, 116); transform-origin: 557.306px 191.276px;" id="elzjh17i23yni" class="animable"></path><path d="M525.771,163.453h9.744l-.297,38.836s-13.886,.807-15.743-12.352c-1.857-13.16,2.518-22.848,6.296-26.483Z" style="fill: rgb(64, 255, 116); transform-origin: 527.275px 182.876px;" id="el84h5ubbixzu" class="animable"></path><path d="M515.325,154.84c-.299,1.29,.067,2.879,.467,4.111,.448,1.381,1.193,2.683,2.177,3.752,2.002,2.172,4.856,3.385,7.802,3.375,1.68-.006,1.682,2.605,0,2.611-3.665,.012-7.341-1.537-9.787-4.292-1.224-1.379-2.144-2.996-2.71-4.751-.548-1.697-.874-3.739-.467-5.499,.379-1.636,2.896-.944,2.517,.694h0Z" style="fill: rgb(64, 255, 116); transform-origin: 519.828px 160.951px;" id="el6kjk59kj4th" class="animable"></path><path d="M502.798,176.222c6.293-2.76,13.663-2.37,19.559,1.214,1.434,.871,.123,3.13-1.318,2.254-5.038-3.062-11.498-3.593-16.924-1.214-.65,.285-1.394,.186-1.786-.468-.33-.551-.176-1.503,.468-1.786h0Z" style="fill: rgb(64, 255, 116); transform-origin: 512.569px 177.15px;" id="elhjrr5tkfi4h" class="animable"></path><path d="M508.728,195.854c2.593-5.487,7.752-9.646,13.646-11.066,1.633-.394,2.329,2.123,.694,2.517-5.298,1.277-9.76,4.945-12.086,9.867-.301,.637-1.215,.802-1.786,.468-.653-.382-.771-1.146-.468-1.786h0Z" style="fill: rgb(64, 255, 116); transform-origin: 516.285px 191.277px;" id="elx3quyc1f65p" class="animable"></path><path d="M547.22,161.432c-.074,.221-1.257-9.644-9.963-9.644s-10.99,9.648-10.99,9.648l20.953-.004Z" style="fill: rgb(64, 255, 116); transform-origin: 536.743px 156.612px;" id="eljvsmionh1ap" class="animable"></path></g><path d="M594.876,155.464c-12.062-32.252-47.985-48.619-80.237-36.557-32.184,12.037-48.563,47.844-36.622,80.064,11.966,32.288,47.841,48.762,80.128,36.796,32.288-11.966,48.762-47.841,36.795-80.128-.021-.058-.043-.116-.065-.174Zm-109.402,40.898l-.034-.093c-10.424-28.116,3.919-59.359,32.035-69.783,28.077-10.369,59.25,3.939,69.693,31.989,10.462,28.102-3.838,59.364-31.939,69.826-28.102,10.462-59.364-3.838-69.826-31.94h.072Z" style="fill: rgb(38, 50, 56); transform-origin: 536.479px 177.305px;" id="elq3227yqb9dn" class="animable"></path><g id="elabm6p7cbbj4"><path d="M594.876,155.464c-12.062-32.252-47.985-48.619-80.237-36.557-32.184,12.037-48.563,47.844-36.622,80.064,11.966,32.288,47.841,48.762,80.128,36.796,32.288-11.966,48.762-47.841,36.795-80.128-.021-.058-.043-.116-.065-.174Zm-109.402,40.898l-.034-.093c-10.424-28.116,3.919-59.359,32.035-69.783,28.077-10.369,59.25,3.939,69.693,31.989,10.462,28.102-3.838,59.364-31.939,69.826-28.102,10.462-59.364-3.838-69.826-31.94h.072Z" style="fill: rgb(255, 255, 255); opacity: 0.3; transform-origin: 536.479px 177.305px;" class="animable"></path></g></g><path d="M626.203,251.378l9.528,2.75,1.155,8.101c-.914,5.168-9.933,1.222-9.933,1.222l-2.02,1.283c-1.64,1.041-5.541-.105-5.876-2.03l-.233-4.926c-.174-1.001,1.136-2.925,1.931-3.55l3.019-2.374c.687-.541,1.589-.717,2.428-.475Z" style="fill: rgb(253, 187, 181); transform-origin: 627.847px 258.2px;" id="elw7egjoobacs" class="animable"></path><g id="ely6avfwrxek9" class="animable" style="transform-origin: 581.395px 233.486px;"><path d="M577.656,228.749s5.675-1.95,7.389-1.2c1.714,.75-.373,2.416-.373,2.416,0,0,2.409-1.692,3.266-.766,1.028,1.111-1.166,2.847-1.166,2.847,0,0,2.023-1.301,2.73-.427,.733,.907-1.604,3.042-1.604,3.042,0,0,1.598-.647,1.745,.239,.147,.886-4.726,5.513-7.04,5.878-2.315,.365-8.027-6.104-8.983-7.772-.956-1.668-.464-4.054,1.405-6.826l2.63,2.568h0Z" style="fill: rgb(253, 187, 181); transform-origin: 581.395px 233.486px;" id="elxtdhg8jvvw" class="animable"></path><g id="elddr99q8h4gu"><path d="M584.762,230.076l-.01,.007-4.341,2.749c-.058,.037-.141,.014-.184-.051-.043-.065-.03-.15,.027-.185l4.34-2.749c.058-.037,.141-.014,.184,.051,.041,.061,.032,.138-.017,.177Z" style="opacity: 0.2; transform-origin: 582.503px 231.34px;" class="animable"></path></g><g id="ell3ivv3142os"><path d="M586.747,232.247l-.003,.002-3.959,2.972c-.055,.041-.138,.024-.185-.038-.048-.063-.041-.13,.014-.188l3.959-2.972c.055-.041,.138-.024,.185,.038,.047,.062,.041,.144-.011,.186Z" style="opacity: 0.2; transform-origin: 584.679px 233.622px;" class="animable"></path></g><g id="elkl027q7w3tm"><path d="M587.855,234.877l-2.879,2.293c-.054,.043-.137,.028-.186-.033-.048-.061-.045-.145,.009-.188l2.879-2.293c.054-.043,.137-.028,.186,.033,.049,.061,.045,.146-.009,.188Z" style="opacity: 0.2; transform-origin: 586.327px 235.913px;" class="animable"></path></g></g></g></g><defs>     <filter id="active" height="200%">         <feMorphology in="SourceAlpha" result="DILATED" operator="dilate" radius="2"></feMorphology>                <feFlood flood-color="#32DFEC" flood-opacity="1" result="PINK"></feFlood>        <feComposite in="PINK" in2="DILATED" operator="in" result="OUTLINE"></feComposite>        <feMerge>            <feMergeNode in="OUTLINE"></feMergeNode>            <feMergeNode in="SourceGraphic"></feMergeNode>        </feMerge>    </filter>    <filter id="hover" height="200%">        <feMorphology in="SourceAlpha" result="DILATED" operator="dilate" radius="2"></feMorphology>                <feFlood flood-color="#ff0000" flood-opacity="0.5" result="PINK"></feFlood>        <feComposite in="PINK" in2="DILATED" operator="in" result="OUTLINE"></feComposite>        <feMerge>            <feMergeNode in="OUTLINE"></feMergeNode>            <feMergeNode in="SourceGraphic"></feMergeNode>        </feMerge>            <feColorMatrix type="matrix" values="0   0   0   0   0                0   1   0   0   0                0   0   0   0   0                0   0   0   1   0 "></feColorMatrix>    </filter></defs></svg>